<svg xmlns="http://www.w3.org/2000/svg" viewBox="0 0 37 37"><defs><style>.cls-1{fill:#cde8f7;}.cls-2{fill:#6b777c;}</style></defs><g id="Icons"><rect class="cls-1" x="1" y="1" width="35" height="35" rx="17.5"/><path class="cls-2" d="M24.53,17H21.3A1.34,1.34,0,0,1,20,15.7V12.47a1.35,1.35,0,0,0-1.35-1.34h0a1.35,1.35,0,0,0-1.35,1.34V15.7A1.34,1.34,0,0,1,15.92,17H12.69a1.35,1.35,0,0,0-1.34,1.35h0a1.35,1.35,0,0,0,1.34,1.35h3.23a1.34,1.34,0,0,1,1.34,1.34v3.23a1.35,1.35,0,0,0,1.35,1.34h0A1.35,1.35,0,0,0,20,24.31V21.08a1.34,1.34,0,0,1,1.34-1.34h3.23a1.35,1.35,0,0,0,1.34-1.35h0A1.35,1.35,0,0,0,24.53,17Z"/></g></svg>