<svg xmlns="http://www.w3.org/2000/svg" viewBox="0 0 37 37"><defs><style>.cls-1{fill:#cde8f7;}.cls-2{fill:#6b777c;}</style></defs><g id="Tela"><rect class="cls-1" x="1" y="1" width="35" height="35" rx="17.5"/><path class="cls-2" d="M13.35,15A3.72,3.72,0,0,1,14,13a4.78,4.78,0,0,1,1.83-1.66,5.75,5.75,0,0,1,2.81-.66,6,6,0,0,1,2.64.55A4.3,4.3,0,0,1,23,12.75a3.64,3.64,0,0,1,.62,2.06,3.3,3.3,0,0,1-.35,1.54,4.47,4.47,0,0,1-.85,1.13c-.32.32-.91.86-1.75,1.62a6.13,6.13,0,0,0-.57.56,2.41,2.41,0,0,0-.31.44,2.56,2.56,0,0,0-.16.4c0,.14-.09.37-.17.71a1.14,1.14,0,0,1-1.23,1.07,1.24,1.24,0,0,1-.9-.35,1.38,1.38,0,0,1-.36-1,3.8,3.8,0,0,1,.26-1.5A4,4,0,0,1,18,18.28q.45-.48,1.2-1.14c.44-.39.76-.68.95-.87a3.19,3.19,0,0,0,.5-.66,1.62,1.62,0,0,0,.2-.78,1.85,1.85,0,0,0-.61-1.39,2.25,2.25,0,0,0-1.59-.57,2.21,2.21,0,0,0-1.67.57,4.67,4.67,0,0,0-.9,1.69c-.24.78-.68,1.16-1.33,1.16a1.32,1.32,0,0,1-1-.4A1.26,1.26,0,0,1,13.35,15Zm5,11.29a1.62,1.62,0,0,1-1.1-.4,1.46,1.46,0,0,1-.47-1.14,1.49,1.49,0,0,1,.45-1.1,1.58,1.58,0,0,1,1.12-.44,1.5,1.5,0,0,1,1.53,1.54,1.42,1.42,0,0,1-.46,1.13A1.59,1.59,0,0,1,18.38,26.3Z"/></g></svg>